<?xml version="1.0" encoding="UTF-8" standalone="no"?>
<!DOCTYPE svg PUBLIC "-//W3C//DTD SVG 1.1//EN" "http://www.w3.org/Graphics/SVG/1.1/DTD/svg11.dtd">
<svg width="100%" height="100%" viewBox="0 0 716 100" version="1.1" xmlns="http://www.w3.org/2000/svg" xmlns:xlink="http://www.w3.org/1999/xlink" xml:space="preserve" xmlns:serif="http://www.serif.com/" style="fill-rule:evenodd;clip-rule:evenodd;stroke-linejoin:round;stroke-miterlimit:1.41421;">
    <g transform="matrix(1,0,0,1,-1888.91,-2.7)">
        <g transform="matrix(1,0,0,1,1884.75,0)">
            <g>
                <g transform="matrix(0.999991,0,0,1,0.00119093,0)">
                    <text x="127.984px" y="36.126px" style="font-family:'AvenirNext-DemiBold', 'Avenir Next', sans-serif;font-weight:600;font-size:32.24px;fill:rgb(30,100,142);">U <tspan x="162.932px 188.079px 200.008px " y="36.126px 36.126px 36.126px ">N I</tspan></text>
                </g>
                <g transform="matrix(0.999991,0,0,1,0.00205958,0)">
                    <text x="221.335px" y="36.126px" style="font-family:'AvenirNext-DemiBold', 'Avenir Next', sans-serif;font-weight:600;font-size:32.24px;fill:rgb(30,100,142);">V</text>
                </g>
                <g transform="matrix(0.999991,0,0,1,0.0023659,0)">
                    <text x="254.254px" y="36.126px" style="font-family:'AvenirNext-DemiBold', 'Avenir Next', sans-serif;font-weight:600;font-size:32.24px;fill:rgb(30,100,142);">E <tspan x="285.849px 306.128px 318.057px 336.562px 348.491px " y="36.126px 36.126px 36.126px 36.126px 36.126px ">R S I</tspan></text>
                </g>
                <g transform="matrix(0.999991,0,0,1,0.00344221,0)">
                    <text x="369.92px" y="36.126px" style="font-family:'AvenirNext-DemiBold', 'Avenir Next', sans-serif;font-weight:600;font-size:32.24px;fill:rgb(30,100,142);">T</text>
                </g>
                <g transform="matrix(0.999991,0,0,1,0.00372367,0)">
                    <text x="400.168px" y="36.126px" style="font-family:'AvenirNext-DemiBold', 'Avenir Next', sans-serif;font-weight:600;font-size:32.24px;fill:rgb(30,100,142);">Y</text>
                </g>
                <g transform="matrix(0.999991,0,0,1,0.00419998,0)">
                    <text x="451.355px" y="36.126px" style="font-family:'AvenirNext-DemiBold', 'Avenir Next', sans-serif;font-weight:600;font-size:32.24px;fill:rgb(30,100,142);">O <tspan x="490.655px " y="36.126px ">F</tspan></text>
                </g>
                <g transform="matrix(0.999991,0,0,1,0.00503449,0)">
                    <text x="541.037px" y="36.126px" style="font-family:'AvenirNext-DemiBold', 'Avenir Next', sans-serif;font-weight:600;font-size:32.24px;fill:rgb(30,100,142);">H</text>
                </g>
                <g transform="matrix(0.999991,0,0,1,0.00536936,0)">
                    <text x="577.024px" y="36.126px" style="font-family:'AvenirNext-DemiBold', 'Avenir Next', sans-serif;font-weight:600;font-size:32.24px;fill:rgb(30,100,142);">A</text>
                </g>
                <g transform="matrix(0.999991,0,0,1,0.00569074,0)">
                    <text x="611.561px" y="36.126px" style="font-family:'AvenirNext-DemiBold', 'Avenir Next', sans-serif;font-weight:600;font-size:32.24px;fill:rgb(30,100,142);">W</text>
                </g>
                <g transform="matrix(0.999991,0,0,1,0.00610151,0)">
                    <text x="655.704px" y="36.126px" style="font-family:'AvenirNext-DemiBold', 'Avenir Next', sans-serif;font-weight:600;font-size:32.24px;fill:rgb(30,100,142);">A</text>
                </g>
                <g transform="matrix(0.999991,0,0,1,0.00642441,0)">
                    <text x="690.406px" y="36.126px" style="font-family:'AvenirNext-DemiBold', 'Avenir Next', sans-serif;font-weight:600;font-size:32.24px;fill:rgb(30,100,142);">I <tspan x="711.426px " y="36.126px ">I</tspan></text>
                </g>
                <g transform="matrix(0.999989,0,0,1,0.00132153,0)">
                    <text x="124.321px" y="94.947px" style="font-family:'AvenirNext-Medium', 'Avenir Next', sans-serif;font-weight:500;font-size:65.852px;fill:rgb(15,50,71);">SEA<tspan x="247.003px 263.466px " y="94.947px 94.947px "> L</tspan>EVEL<tspan x="450.616px 467.079px " y="94.947px 94.947px "> C</tspan>ENTER</text>
                </g>
            </g>
        </g>
        <g transform="matrix(1,0,0,1,1884.75,0)">
            <g transform="matrix(0,-100,-100,-0,54.165,102.7)">
                <path d="M1,0.278C1,0.401 0.901,0.5 0.778,0.5L0.222,0.5C0.099,0.5 0,0.401 0,0.278L0,-0.278C0,-0.401 0.099,-0.5 0.222,-0.5L0.778,-0.5C0.901,-0.5 1,-0.401 1,-0.278L1,0.278Z" style="fill:url(#_Linear1);fill-rule:nonzero;"/>
            </g>
        </g>
        <g transform="matrix(1,0,0,1,1884.75,0)">
            <g transform="matrix(1,0,0,1,104.165,73.619)">
                <path d="M0,-3.452L0,0.005L-16.027,0.005C-16.305,-0.192 -16.582,-0.401 -16.866,-0.63C-17.841,-1.413 -18.81,-2.383 -19.753,-3.457C-16.328,-3.457 -12.472,-3.452 -8.811,-3.452L0,-3.452Z" style="fill:white;fill-rule:nonzero;"/>
            </g>
        </g>
        <g transform="matrix(1,0,0,1,1884.75,0)">
            <g transform="matrix(1,0,0,1,82.2686,64.1302)">
                <path d="M0,3.447C-0.891,2.316 -1.759,1.143 -2.611,0L21.896,0L21.896,3.447" style="fill:white;fill-rule:nonzero;"/>
            </g>
        </g>
        <g transform="matrix(1,0,0,1,1884.75,0)">
            <g transform="matrix(1,0,0,1,79.1631,64.729)">
                <path d="M0,8.895L-3.93,8.895L-3.962,8.895C-5.308,8.895 -6.579,8.661 -7.758,8.249C-8.944,7.834 -10.036,7.235 -11.03,6.507C-12.377,5.533 -13.556,4.328 -14.604,2.984C-14.381,2.666 -14.173,2.36 -13.967,2.056C-13.456,1.309 -12.982,0.62 -12.531,0C-12.13,0.555 -11.715,1.081 -11.29,1.569C-10.209,2.798 -9.094,3.758 -7.889,4.415C-6.684,5.076 -5.383,5.427 -3.93,5.433L-2.766,5.433C-1.899,6.577 -0.979,7.753 0,8.895" style="fill:white;fill-rule:nonzero;"/>
            </g>
        </g>
        <g transform="matrix(1,0,0,1,1884.75,0)">
            <g transform="matrix(1,0,0,1,74.4609,64.0932)">
                <path d="M0,3.484L-2.693,3.484L-3.303,3.484C-4.058,2.951 -4.796,2.265 -5.551,1.421C-5.935,0.989 -6.309,0.515 -6.675,0C-5.532,0.013 -4.322,0.018 -3.063,0.018L-2.734,0.018C-2.73,0.032 -2.717,0.046 -2.703,0.056C-2.089,0.768 -1.403,1.618 -0.7,2.556C-0.47,2.86 -0.234,3.17 0,3.484" style="fill:white;fill-rule:nonzero;"/>
            </g>
        </g>
        <g transform="matrix(1,0,0,1,1884.75,0)">
            <g transform="matrix(1,0,0,1,63.3008,56.3146)">
                <path d="M0,2.619C-0.197,2.836 -0.39,3.059 -0.576,3.279C-1.191,4.026 -1.769,4.828 -2.354,5.662C-2.916,4.575 -3.446,3.464 -3.944,2.359C-5.031,-0.024 -5.983,-2.387 -6.885,-4.479C-7.478,-5.866 -8.058,-7.141 -8.612,-8.19C-9.161,-9.244 -9.68,-10.073 -10.145,-10.584C-10.662,-11.166 -10.946,-11.234 -11.019,-11.234L-11.026,-11.234L-11.037,-11.234C-11.407,-11.219 -11.823,-11.066 -12.278,-10.732C-12.734,-10.406 -13.231,-9.887 -13.771,-9.139C-14.306,-8.413 -14.827,-7.504 -15.365,-6.472C-15.896,-5.436 -16.435,-4.282 -16.976,-3.048C-17.167,-2.621 -17.359,-2.184 -17.551,-1.739C-19.286,2.249 -19.864,3.551 -20.487,4.828C-21.786,7.495 -23.261,10.076 -25.076,12.229C-27.472,15.081 -30.698,17.22 -34.778,17.22L-34.815,17.22L-35.754,17.22C-39.445,17.22 -44.272,17.229 -48.944,17.249C-57.304,17.273 -59.13,17.309 -59.136,17.309L-59.136,13.756C-59.136,13.756 -44.792,13.763 -34.815,13.763C-33.865,13.754 -33.007,13.607 -32.199,13.323C-31.389,13.04 -30.637,12.619 -29.901,12.083C-29.174,11.545 -28.476,10.879 -27.804,10.1C-27.138,9.321 -26.502,8.446 -25.89,7.483C-24.667,5.563 -23.583,3.342 -22.551,1.063C-21.524,-1.215 -20.563,-3.549 -19.581,-5.69C-18.921,-7.123 -18.261,-8.474 -17.538,-9.69C-16.823,-10.9 -16.046,-11.974 -15.131,-12.85C-14.61,-13.344 -14.021,-13.783 -13.371,-14.109C-12.716,-14.43 -12.008,-14.64 -11.242,-14.684C-11.173,-14.684 -11.101,-14.69 -11.026,-14.69C-9.929,-14.69 -8.964,-14.195 -8.241,-13.568C-7.514,-12.93 -6.923,-12.14 -6.359,-11.237C-5.248,-9.43 -4.249,-7.127 -3.181,-4.605C-2.198,-2.277 -1.163,0.236 0,2.619" style="fill:white;fill-rule:nonzero;"/>
            </g>
        </g>
        <g transform="matrix(1,0,0,1,1884.75,0)">
            <g transform="matrix(1,0,0,1,59.0586,55.3478)">
                <path d="M0,8.326C0.186,8.357 0.402,8.389 0.659,8.421C-0.044,9.449 -0.767,10.506 -1.53,11.53C-2.643,11.259 -3.679,10.833 -4.636,10.297C-5.87,9.603 -6.98,8.722 -7.976,7.709C-9.802,5.839 -11.277,3.538 -12.53,1.019C-12.352,0.604 -12.174,0.198 -12,-0.204C-11.821,-0.612 -11.648,-1.007 -11.475,-1.395C-11.198,-2.019 -10.926,-2.624 -10.653,-3.204C-9.819,-1.204 -8.901,0.659 -7.865,2.271C-6.791,3.944 -5.631,5.315 -4.332,6.344C-3.036,7.369 -1.61,8.05 0,8.326" style="fill:white;fill-rule:nonzero;"/>
            </g>
        </g>
        <g transform="matrix(1,0,0,1,1884.75,0)">
            <g transform="matrix(1,0,0,1,45.6523,48.2496)">
                <path d="M0,-3.858C-0.39,-3.336 -0.748,-2.779 -1.088,-2.205C-1.531,-1.458 -1.939,-0.681 -2.342,0.135C-2.5,-0.339 -2.655,-0.822 -2.811,-1.296C-3.772,-4.279 -4.617,-7.215 -5.451,-9.846C-6.001,-11.6 -6.563,-13.211 -7.13,-14.581C-7.693,-15.954 -8.261,-17.076 -8.834,-17.848C-9.161,-18.29 -9.458,-18.6 -9.724,-18.809C-9.987,-19.012 -10.222,-19.119 -10.419,-19.157C-10.446,-19.157 -10.466,-19.162 -10.476,-19.162C-10.508,-19.162 -10.668,-19.162 -11.074,-18.754C-11.464,-18.366 -11.958,-17.625 -12.45,-16.643C-12.952,-15.662 -13.457,-14.433 -13.983,-13.045C-14.509,-11.648 -15.045,-10.094 -15.602,-8.453C-16.718,-5.155 -17.915,-1.49 -19.326,2.067C-20.748,5.622 -22.39,9.066 -24.414,11.926C-25.753,13.821 -27.323,15.5 -29.143,16.714C-30.817,17.838 -32.693,18.567 -34.81,18.727C-35.001,18.746 -35.193,18.751 -35.39,18.76L-35.396,18.76L-41.487,18.76L-41.487,15.302L-35.446,15.302C-33.322,15.221 -31.53,14.388 -29.811,12.864C-28.952,12.099 -28.124,11.154 -27.347,10.073C-26.563,8.995 -25.821,7.776 -25.124,6.462C-23.729,3.827 -22.507,0.814 -21.395,-2.243C-20.284,-5.291 -19.284,-8.388 -18.321,-11.192C-17.666,-13.069 -17.051,-14.803 -16.395,-16.34C-15.741,-17.883 -15.063,-19.217 -14.278,-20.298C-13.839,-20.896 -13.321,-21.47 -12.693,-21.896C-12.069,-22.329 -11.334,-22.605 -10.476,-22.618C-10.222,-22.618 -9.978,-22.594 -9.734,-22.545C-8.543,-22.303 -7.558,-21.619 -6.773,-20.779C-5.987,-19.932 -5.349,-18.909 -4.766,-17.75C-4.187,-16.587 -3.655,-15.272 -3.149,-13.857C-2.643,-12.439 -2.162,-10.921 -1.675,-9.335C-1.132,-7.567 -0.583,-5.718 0,-3.858" style="fill:white;fill-rule:nonzero;"/>
            </g>
        </g>
        <g transform="matrix(1,0,0,1,1884.75,0)">
            <g transform="matrix(1,0,0,1,104.165,60.6008)">
                <path d="M0,16.034L0,19.489L-11.334,19.489C-14.215,19.494 -16.778,18.465 -18.988,16.86C-21.208,15.248 -23.14,13.149 -24.903,10.981C-28.373,6.657 -31.402,1.961 -33.579,0.522C-34.182,0.106 -34.612,-0.015 -34.877,-0.011C-35.212,-0.008 -35.58,0.102 -36.117,0.493C-36.645,0.875 -37.273,1.529 -37.945,2.379C-39.293,4.082 -40.804,6.529 -42.648,9.037C-46.291,14.028 -51.615,19.506 -60.339,19.497C-70.346,19.496 -99.999,19.494 -100,19.494L-100,16.017C-99.981,16.017 -95.523,15.983 -85.856,16.031C-76.191,16.079 -65.328,16.039 -60.339,16.039C-54.079,16.02 -50.109,12.766 -46.783,8.738C-43.448,4.713 -41.292,0.099 -38.163,-2.296C-37.249,-2.974 -36.128,-3.472 -34.877,-3.469C-33.004,-3.442 -31.558,-2.417 -30.234,-1.188C-28.908,0.068 -27.642,1.675 -26.324,3.422C-23.704,6.903 -20.854,10.933 -17.738,13.461C-15.657,15.15 -13.555,16.04 -11.325,16.039" style="fill:white;fill-rule:nonzero;"/>
            </g>
        </g>
        <g transform="matrix(1,0,0,1,1884.75,0)">
            <g transform="matrix(1,0,0,1,66.1436,32.6771)">
                <path d="M0,5.946C-1.288,5.946 -0.533,-0.742 5.654,5.446C12.229,12.02 8.156,-6.074 20.604,-0.352C25.187,4.228 15.603,-3.361 9.377,9.019C7.383,9.019 2.647,3.3 0,5.946" style="fill:white;fill-rule:nonzero;"/>
            </g>
        </g>
    </g>
    <defs>
        <linearGradient id="_Linear1" x1="0" y1="0" x2="1" y2="0" gradientUnits="userSpaceOnUse" gradientTransform="matrix(1,0,0,-1,0,-7.82e-07)"><stop offset="0" style="stop-color:rgb(15,50,71);stop-opacity:1"/><stop offset="0.44" style="stop-color:rgb(15,50,71);stop-opacity:1"/><stop offset="1" style="stop-color:rgb(30,100,142);stop-opacity:1"/></linearGradient>
    </defs>
</svg>
